<?xml version="1.0" standalone="no"?>
<!DOCTYPE svg PUBLIC "-//W3C//DTD SVG 20010904//EN"
 "http://www.w3.org/TR/2001/REC-SVG-20010904/DTD/svg10.dtd">
<svg version="1.0" xmlns="http://www.w3.org/2000/svg"
 width="700.000000pt" height="700.000000pt" viewBox="0 0 700.000000 700.000000"
 preserveAspectRatio="xMidYMid meet">
<metadata>
Created by potrace 1.14, written by Peter Selinger 2001-2017
</metadata>
<g transform="translate(0.000000,700.000000) scale(0.100000,-0.100000)"
fill="#000000" stroke="none">
<path d="M592 6989 c-143 -21 -270 -87 -382 -199 -118 -118 -179 -240 -200
-402 -8 -58 -10 -926 -8 -2943 3 -2719 4 -2863 21 -2920 74 -247 255 -427 502
-502 57 -17 207 -18 3104 -20 3379 -4 3113 -9 3218 63 28 19 67 59 87 87 72
105 66 -174 66 3347 0 3521 6 3242 -66 3347 -20 28 -59 67 -87 87 -105 71 157
66 -3182 65 -1719 -1 -3037 -5 -3073 -10z m6058 -6289 l0 -350 -3023 2 -3022
3 -56 28 c-67 32 -142 109 -172 175 -31 67 -31 217 0 284 25 54 90 128 140
159 81 50 -84 48 3126 48 l3007 1 0 -350z"/>
</g>
</svg>
