<?xml version="1.0" standalone="no"?>
<!DOCTYPE svg PUBLIC "-//W3C//DTD SVG 20010904//EN"
 "http://www.w3.org/TR/2001/REC-SVG-20010904/DTD/svg10.dtd">
<svg version="1.0" xmlns="http://www.w3.org/2000/svg"
 width="700.000000pt" height="700.000000pt" viewBox="0 0 700.000000 700.000000"
 preserveAspectRatio="xMidYMid meet">
<metadata>
Created by potrace 1.14, written by Peter Selinger 2001-2017
</metadata>
<g transform="translate(0.000000,700.000000) scale(0.100000,-0.100000)"
fill="#000000" stroke="none">
<path d="M592 6989 c-143 -21 -270 -87 -382 -199 -118 -118 -179 -240 -200
-402 -8 -58 -10 -926 -8 -2943 3 -2719 4 -2863 21 -2920 74 -247 255 -427 502
-502 57 -17 207 -18 3104 -20 3379 -4 3113 -9 3218 63 28 19 67 59 87 87 72
105 66 -174 66 3347 0 3521 6 3242 -66 3347 -20 28 -59 67 -87 87 -105 71 157
66 -3182 65 -1719 -1 -3037 -5 -3073 -10z m6058 -2964 l0 -2625 -3042 -2
c-2933 -3 -3045 -4 -3098 -22 -30 -10 -77 -29 -104 -42 -27 -13 -51 -24 -53
-24 -2 0 -2 1142 -1 2538 l3 2537 26 55 c47 101 126 169 228 196 36 10 701 13
3044 13 l2997 1 0 -2625z m0 -3325 l0 -350 -3023 2 -3022 3 -56 28 c-67 32
-142 109 -172 175 -31 67 -31 217 0 284 25 54 90 128 140 159 81 50 -84 48
3126 48 l3007 1 0 -350z"/>
<path d="M1657 5939 c-96 -23 -182 -94 -225 -188 -23 -48 -27 -69 -27 -151 0
-82 4 -103 27 -151 33 -72 95 -134 167 -168 l56 -26 2020 0 2020 0 56 26 c72
34 134 96 167 168 23 48 27 69 27 151 0 82 -4 103 -27 151 -33 72 -95 134
-167 168 l-56 26 -2000 2 c-1145 0 -2016 -3 -2038 -8z"/>
<path d="M1613 4532 c-147 -52 -220 -173 -211 -356 7 -145 62 -237 176 -293
l57 -28 2040 0 2040 0 46 21 c67 31 124 87 156 152 26 52 28 66 28 172 0 106
-2 120 -28 172 -32 65 -89 121 -156 152 l-46 21 -2025 2 c-1924 2 -2028 2
-2077 -15z"/>
<path d="M1640 3136 c-90 -24 -173 -96 -213 -185 -31 -67 -31 -235 0 -303 30
-66 96 -133 162 -165 l56 -28 2030 0 2030 0 47 22 c66 30 133 96 165 162 25
50 28 67 28 161 0 94 -3 111 -28 161 -32 66 -99 132 -165 162 l-47 22 -2010 2
c-1567 1 -2020 -1 -2055 -11z"/>
</g>
</svg>
